<?xml version="1.0" encoding="utf-8"?>
<!-- Generator: Adobe Illustrator 16.0.0, SVG Export Plug-In . SVG Version: 6.00 Build 0)  -->
<!DOCTYPE svg PUBLIC "-//W3C//DTD SVG 1.1//EN" "http://www.w3.org/Graphics/SVG/1.1/DTD/svg11.dtd">
<svg version="1.1" id="Layer_1" xmlns="http://www.w3.org/2000/svg" xmlns:xlink="http://www.w3.org/1999/xlink" x="0px" y="0px"
	 width="1148.649px" height="1140.54px" viewBox="0 0 1148.649 1140.54" enable-background="new 0 0 1148.649 1140.54"
	 xml:space="preserve">
<g>
	<g>
		
			<rect x="108.731" y="-1.259" transform="matrix(-0.7071 -0.7071 0.7071 -0.7071 102.8008 325.0962)" fill="#FFFFFF" width="20.001" height="285.032"/>
	</g>
	<g>
		
			<rect x="-190.86" y="466.155" transform="matrix(-0.0852 -0.9964 0.9964 -0.0852 -344.4921 636.0181)" fill="#FFFFFF" width="621.183" height="20.001"/>
	</g>
	<g>
		
			<rect x="71.678" y="261.543" transform="matrix(-0.0757 -0.9971 0.9971 -0.0757 -106.9084 443.9871)" fill="#FFFFFF" width="161.291" height="20"/>
	</g>
	<g>
		
			<rect x="119.038" y="225.412" transform="matrix(-0.0647 -0.9979 0.9979 -0.0647 -7.7162 463.5916)" fill="#FFFFFF" width="188.714" height="20"/>
	</g>
	<g>
		
			<rect x="172.863" y="198.587" transform="matrix(-0.5038 -0.8638 0.8638 -0.5038 66.7988 520.3929)" fill="#FFFFFF" width="19.999" height="84.848"/>
	</g>
	<g>
		
			<rect x="312.3" y="-13.501" transform="matrix(-0.6253 -0.7804 0.7804 -0.6253 460.0556 384.3431)" fill="#FFFFFF" width="20" height="190.447"/>
	</g>
	<g>
		<polygon fill="#FFFFFF" points="290.934,316.012 290.934,98.844 310.934,98.844 310.934,277.992 425.563,199.187 436.892,215.667 
					"/>
	</g>
	<g>
		
			<rect x="333.699" y="100.155" transform="matrix(-0.5264 -0.8503 0.8503 -0.5264 396.6976 521.8611)" fill="#FFFFFF" width="20.002" height="100.572"/>
	</g>
	<g>
		<path fill="#FFFFFF" d="M410.935,1126.465c-5.153,0-10.405-0.387-15.753-1.164c-45.726-6.646-76.195-30.199-95.891-74.121
			c-17.302-38.586-24.966-89.633-33.841-148.742c-6.667-44.406-14.224-94.736-27.151-147.012
			c-37.269-150.705-35.285-283.534,5.175-346.65c14.33-22.354,33.032-35.868,55.588-40.166
			c92.923-17.698,147.937,138.344,150.232,144.997l-18.904,6.528c0-0.001,0-0.002-0.001-0.003l0,0
			c-0.58-1.674-51.622-146.347-127.583-131.875c-16.948,3.229-31.245,13.765-42.494,31.313
			c-18.293,28.538-28.205,74.62-28.663,133.263c-0.458,58.593,8.556,126.99,26.065,197.794
			c13.151,53.182,20.782,104.002,27.514,148.842c8.656,57.654,16.132,107.445,32.312,143.529
			c16.855,37.588,41.688,56.867,80.519,62.512c28.892,4.201,53.557-5.355,73.316-28.402c24.491-28.563,40.681-76.941,45.587-136.225
			c4.678-56.516-1.546-117.973-17.075-168.611l19.121-5.863c16.246,52.977,22.766,117.172,17.885,176.125
			c-5.251,63.443-23.127,115.859-50.336,147.594C466.017,1114.081,440.108,1126.463,410.935,1126.465z"/>
	</g>
	<g>
		<path fill="#FFFFFF" d="M641.35,899.667c-21.289,0-41.105-14.902-58.895-44.293c-13.12-21.674-25.485-51.664-36.753-89.139
			c-18.342-60.996-27.929-122.781-28.638-127.445c-1.073-5.307-13.903-70.252-14.403-140.921
			c-0.304-42.878,4.071-78.872,13.001-106.98c11.751-36.987,31.507-60.776,58.716-70.705c8.996-3.283,17.884-4.947,26.416-4.947
			c23.523,0,44.469,12.259,62.252,36.436c13.959,18.976,26.068,45.53,35.992,78.924c17.93,60.326,24.252,127.249,25.162,157.282
			l0.098,3.191c1.08,35.281,3.326,108.699-4.59,174.117c-4.494,37.135-11.725,66.883-21.488,88.422
			c-12.768,28.156-30.332,43.574-52.207,45.818C644.463,899.586,642.895,899.667,641.35,899.667z M600.793,335.236
			c-6.188,0-12.768,1.257-19.561,3.735c-49.213,17.958-59.017,96.244-58.574,158.754c0.497,70.25,13.915,136.654,14.05,137.316
			l0.094,0.535c0.094,0.625,9.52,63.336,28.104,125.082c23.101,76.744,50.248,119.008,76.441,119.008
			c0.865,0,1.746-0.045,2.619-0.135c34.943-3.588,49.678-65.469,55.883-116.748c7.734-63.916,5.52-136.314,4.455-171.105
			l-0.098-3.195c-0.881-29.068-7-93.832-24.344-152.19C666.165,390.191,641.325,335.236,600.793,335.236z"/>
	</g>
	<g>
		
			<rect x="462.19" y="600.548" transform="matrix(-0.5679 -0.8231 0.8231 -0.5679 885.3347 1685.8693)" fill="#FFFFFF" width="845.985" height="19.999"/>
	</g>
	<g>
		
			<rect x="843.622" y="92.218" transform="matrix(-0.9842 -0.1768 0.1768 -0.9842 1603.1937 1167.7727)" fill="#FFFFFF" width="20.001" height="840.489"/>
	</g>
</g>
</svg>
