<?xml version="1.0" encoding="utf-8"?>
<!-- Generator: Adobe Illustrator 16.0.0, SVG Export Plug-In . SVG Version: 6.00 Build 0)  -->
<!DOCTYPE svg PUBLIC "-//W3C//DTD SVG 1.1//EN" "http://www.w3.org/Graphics/SVG/1.1/DTD/svg11.dtd">
<svg version="1.1" id="Layer_1" xmlns="http://www.w3.org/2000/svg" xmlns:xlink="http://www.w3.org/1999/xlink" x="0px" y="0px"
	 width="600px" height="745.5px" viewBox="0 0 600 745.5" enable-background="new 0 0 600 745.5" xml:space="preserve">
<polygon fill="#69B76B" points="60.921,161.968 300,23.936 539.078,161.968 539.078,438.033 300,576.064 60.921,438.032 "/>
<polygon fill="#457745" points="300,301.594 300,583.646 547.329,442.62 547.329,162.019 "/>
<polygon fill="#457745" points="52.847,441.169 52.847,162.019 300,301.594 "/>
<g>
	<g>
		<path fill="#231F20" d="M547.7,145.45L310,8.21c-3.09-1.78-6.55-2.68-10-2.68s-6.91,0.9-10,2.68L52.3,145.45
			c-6.18,3.57-10,10.17-10,17.32v274.46c0,7.148,3.82,13.75,10,17.318L290,591.79c3.09,1.78,6.55,2.68,10,2.68s6.91-0.898,10-2.68
			l237.7-137.24c6.18-3.568,10-10.17,10-17.318V162.77C557.7,155.62,553.88,149.02,547.7,145.45z M62.3,174.27L280,298.31
			L62.3,425.64V174.27z M290,568.7L72.26,442.98L290,315.641V568.7z M300,286.7L72.35,156.97L300,25.53L527.65,156.97L300,286.7z
			 M537.7,437.23L310,568.7V304.01l227.7-129.74V437.23z"/>
	</g>
</g>
<g>
	<path fill="#FFFFFF" d="M182.208,661.054v29.604h-7.105v-27.69c0-8.472-5.101-13.481-13.573-13.481
		c-10.202,0.091-16.213,7.287-16.213,17.58v23.592h-7.105v-67.588h7.105v30.333c3.279-7.47,9.837-10.932,18.673-11.021
		C175.467,642.381,182.208,649.485,182.208,661.054z"/>
	<path fill="#FFFFFF" d="M239.407,669.435h-39.168c1.275,9.381,8.107,15.302,17.398,15.302c5.921,0,11.113-2.094,14.847-6.012
		l3.917,4.191c-4.554,5.1-11.295,8.015-19.311,8.015c-14.119,0-23.866-9.929-23.866-24.229c0-14.302,9.838-24.23,23.774-24.23
		C232.484,642.381,240.136,653.129,239.407,669.435z M233.03,663.604c-0.455-9.199-6.649-15.029-16.032-15.029
		c-9.108,0-15.667,5.92-16.76,15.029H233.03z"/>
	<path fill="#FFFFFF" d="M277.206,642.653h7.833l-16.031,23.319l17.215,24.685h-8.289l-13.663-19.583l-14.119,19.583h-8.016
		l17.489-24.685l-16.305-23.319h8.198l12.752,18.218L277.206,642.653z"/>
	<path fill="#FFFFFF" d="M338.779,666.61c0,14.392-10.111,24.32-24.321,24.32c-14.21,0-24.321-9.929-24.321-24.32
		c0-14.302,10.11-24.14,24.321-24.14C328.668,642.471,338.779,652.309,338.779,666.61z M297.242,666.701
		c0,10.566,7.196,17.854,17.216,17.854c10.021,0,17.216-7.287,17.216-17.854c0-10.476-7.195-17.763-17.216-17.763
		C304.438,648.938,297.242,656.226,297.242,666.701z"/>
	<path fill="#FFFFFF" d="M351.71,690.657v-67.588h7.104v67.588H351.71z"/>
	<path fill="#FFFFFF" d="M387.324,690.657l-19.037-48.004h7.56l15.303,40.626l15.212-40.626h7.197l-18.857,48.004H387.324z"/>
	<path fill="#FFFFFF" d="M461.74,669.435h-39.168c1.274,9.381,8.107,15.302,17.397,15.302c5.921,0,11.113-2.094,14.849-6.012
		l3.916,4.191c-4.555,5.1-11.295,8.015-19.311,8.015c-14.118,0-23.865-9.929-23.865-24.229c0-14.302,9.837-24.23,23.773-24.23
		C454.818,642.381,462.469,653.129,461.74,669.435z M455.364,663.604c-0.454-9.199-6.649-15.029-16.032-15.029
		c-9.109,0-15.667,5.92-16.76,15.029H455.364z"/>
</g>
</svg>
