<?xml version="1.0" encoding="utf-8"?>
<!-- Generator: Adobe Illustrator 16.0.0, SVG Export Plug-In . SVG Version: 6.00 Build 0)  -->
<!DOCTYPE svg PUBLIC "-//W3C//DTD SVG 1.1//EN" "http://www.w3.org/Graphics/SVG/1.1/DTD/svg11.dtd">
<svg version="1.1" id="Layer_1" xmlns="http://www.w3.org/2000/svg" xmlns:xlink="http://www.w3.org/1999/xlink" x="0px" y="0px"
	 width="600px" height="600px" viewBox="0 0 600 600" enable-background="new 0 0 600 600" xml:space="preserve">
<g>
	<g>
		<g>
			<path fill="#FFFFFF" d="M461.764,375.762c-5.684,0-11.364-2.156-15.691-6.484c-8.67-8.686-8.67-22.715,0-31.379l37.892-37.895
				L300.011,116.051L259.252,156.8c-8.666,8.67-22.708,8.658-31.375,0c-8.666-8.651-8.666-22.708,0-31.371l56.441-56.441
				c8.659-8.659,22.708-8.659,31.359,0l215.341,215.334c4.146,4.159,6.49,9.797,6.49,15.682c0,5.883-2.344,11.525-6.49,15.696
				l-53.577,53.576C473.114,373.604,467.446,375.762,461.764,375.762z"/>
		</g>
		<g>
			<path fill="#FFFFFF" d="M300.011,537.518c-5.674,0-11.357-2.155-15.681-6.49L68.996,315.7c-4.17-4.171-6.495-9.813-6.495-15.696
				c0-5.885,2.337-11.523,6.495-15.682l49.673-49.662c8.655-8.67,22.708-8.67,31.363,0c8.671,8.667,8.671,22.708,0,31.356
				l-33.983,33.988l183.963,183.951l34.946-34.949c8.661-8.669,22.7-8.669,31.371,0.017c8.653,8.646,8.653,22.698,0,31.354
				l-50.627,50.629C311.364,535.339,305.688,537.518,300.011,537.518z"/>
		</g>
		<g>
			<path fill="#FFFFFF" d="M565.311,591.73c-5.676,0-11.344-2.164-15.692-6.5L333.13,368.708c-8.663-8.663-8.663-22.7,0-31.354
				c8.67-8.679,22.707-8.679,31.362,0L581.009,553.87c8.654,8.67,8.654,22.708,0,31.371
				C576.674,589.566,570.99,591.73,565.311,591.73z"/>
		</g>
		<g>
			<path fill="#FFFFFF" d="M244.102,270.52c-5.671,0-11.354-2.175-15.678-6.495L18.993,54.59c-8.658-8.659-8.658-22.708,0-31.366
				c8.66-8.663,22.702-8.663,31.368,0L259.78,232.639c8.669,8.678,8.669,22.724,0,31.371
				C255.449,268.344,249.773,270.52,244.102,270.52z"/>
		</g>
		<g>
			<path fill="#FFFFFF" d="M34.672,583.271c-5.671,0-11.354-2.172-15.679-6.491c-8.658-8.663-8.658-22.724,0-31.362l94.531-94.547
				c8.667-8.671,22.716-8.671,31.364-0.008c8.669,8.679,8.669,22.715,0,31.37l-94.527,94.53
				C46.025,581.1,40.347,583.271,34.672,583.271z"/>
		</g>
		<g>
			<path fill="#FFFFFF" d="M247.966,369.973c-5.68,0-11.354-2.17-15.697-6.506c-8.658-8.655-8.658-22.708,0-31.361l100.704-100.701
				c8.678-8.66,22.709-8.671,31.377,0c8.672,8.666,8.672,22.708,0,31.362l-100.707,100.7
				C259.319,367.803,253.637,369.973,247.966,369.973z"/>
		</g>
		<g>
			<path fill="#FFFFFF" d="M465.514,152.438c-5.682,0-11.354-2.174-15.689-6.499c-8.655-8.663-8.655-22.708,0-31.377l99.794-99.798
				c8.669-8.651,22.707-8.667,31.37,0c8.669,8.67,8.669,22.711,0,31.367l-99.794,99.798
				C476.865,150.264,471.182,152.438,465.514,152.438z"/>
		</g>
	</g>
</g>
</svg>
